# xmcd CD database file
#
# Track frame offsets:
#	150
#	25094
#	57264
#	86184
#	113926
#	141956
#	168782
#	200962
#	229987
#	252639
#
# Disc length: 3783 seconds
#
# Revision: 0
# Processed by: cddbd v1.5.2PL0 Copyright (c) Steve Scherf et al.
# Submitted via: CDex 1.51
#
DISCID=930ec50a
DTITLE=Donald Vega - With Respect to Monty
DYEAR=2015
DGENRE=Jazz
TTITLE0=Eleuthra
TTITLE1=3000 Miles Ago
TTITLE2=Compassion
TTITLE3=Slippery
TTITLE4=Consider
TTITLE5=Mango Rengue
TTITLE6=Renewal
TTITLE7=You Can See
TTITLE8=Sweet Lady
TTITLE9=The Gathering
EXTD=YEAR: 2015
EXTT0=
EXTT1=
EXTT2=
EXTT3=
EXTT4=
EXTT5=
EXTT6=
EXTT7=
EXTT8=
EXTT9=
PLAYORDER=
